REM DIRINDEX 1\2\6,1\2\7,1\2\8,1\2\9,1\3\10,1\3\11,1\4\12,1\4\13,1\4\14,1\5\15,1\5\16,1\5\17
REM DIRNAME folder01,folder02,folder03,folder04,folder05,folder06,folder07,folder08,folder09,folder10,folder11,folder12,folder13,folder14,folder15,folder16,folder17
TITLE ""
FILE "1400_2_sec07_0616_0632.mp3" MP3
  TRACK 01 AUDIO
    TITLE "0:"
    INDEX 01 00:00:00
  TRACK 02 AUDIO
    TITLE "13:cjc029_2824"
    INDEX 01 00:00:19
  TRACK 03 AUDIO
    TITLE "0:"
    INDEX 01 00:01:30
  TRACK 04 AUDIO
    TITLE "14:cjc029_2825"
    INDEX 01 00:01:34
  TRACK 05 AUDIO
    TITLE "0:"
    INDEX 01 00:04:40
  TRACK 06 AUDIO
    TITLE "13:cjc029_2826"
    INDEX 01 00:05:22
  TRACK 07 AUDIO
    TITLE "0:"
    INDEX 01 00:06:45
  TRACK 08 AUDIO
    TITLE "14:cjc029_2827"
    INDEX 01 00:06:47
  TRACK 09 AUDIO
    TITLE "0:"
    INDEX 01 00:09:20
  TRACK 10 AUDIO
    TITLE "13:cjc029_2828"
    INDEX 01 00:10:00
  TRACK 11 AUDIO
    TITLE "0:"
    INDEX 01 00:11:03
  TRACK 12 AUDIO
    TITLE "14:cjc029_2829"
    INDEX 01 00:11:07
  TRACK 13 AUDIO
    TITLE "0:"
    INDEX 01 00:16:57
  TRACK 14 AUDIO
    TITLE "13:cjc029_2830"
    INDEX 01 00:17:39
  TRACK 15 AUDIO
    TITLE "0:"
    INDEX 01 00:18:56
  TRACK 16 AUDIO
    TITLE "14:cjc029_2831"
    INDEX 01 00:18:60
  TRACK 17 AUDIO
    TITLE "0:"
    INDEX 01 00:20:06
  TRACK 18 AUDIO
    TITLE "13:cjc029_2832"
    INDEX 01 00:20:63
  TRACK 19 AUDIO
    TITLE "0:"
    INDEX 01 00:22:09
  TRACK 20 AUDIO
    TITLE "14:cjc029_2833"
    INDEX 01 00:22:13
  TRACK 21 AUDIO
    TITLE "0:"
    INDEX 01 00:22:72
  TRACK 22 AUDIO
    TITLE "13:cjc029_2834"
    INDEX 01 00:23:53
  TRACK 23 AUDIO
    TITLE "0:"
    INDEX 01 00:24:74
  TRACK 24 AUDIO
    TITLE "14:cjc029_2835"
    INDEX 01 00:25:03
  TRACK 25 AUDIO
    TITLE "0:"
    INDEX 01 00:28:23
  TRACK 26 AUDIO
    TITLE "13:cjc029_2836"
    INDEX 01 00:29:05
  TRACK 27 AUDIO
    TITLE "0:"
    INDEX 01 00:30:18
  TRACK 28 AUDIO
    TITLE "14:cjc029_2837"
    INDEX 01 00:30:22
  TRACK 29 AUDIO
    TITLE "0:"
    INDEX 01 00:31:51
  TRACK 30 AUDIO
    TITLE "13:cjc029_2838"
    INDEX 01 00:32:33
  TRACK 31 AUDIO
    TITLE "0:"
    INDEX 01 00:33:52
  TRACK 32 AUDIO
    TITLE "14:cjc029_2839"
    INDEX 01 00:33:58
  TRACK 33 AUDIO
    TITLE "0:"
    INDEX 01 00:35:12
  TRACK 34 AUDIO
    TITLE "13:cjc029_2840"
    INDEX 01 00:35:68
  TRACK 35 AUDIO
    TITLE "0:"
    INDEX 01 00:37:14
  TRACK 36 AUDIO
    TITLE "14:cjc029_2841"
    INDEX 01 00:37:20
  TRACK 37 AUDIO
    TITLE "0:"
    INDEX 01 00:38:39
  TRACK 38 AUDIO
    TITLE "13:cjc029_2842"
    INDEX 01 00:39:21
  TRACK 39 AUDIO
    TITLE "0:"
    INDEX 01 00:40:38
  TRACK 40 AUDIO
    TITLE "14:cjc029_2843"
    INDEX 01 00:40:40
  TRACK 41 AUDIO
    TITLE "0:"
    INDEX 01 00:42:68
  TRACK 42 AUDIO
    TITLE "13:cjc029_2844"
    INDEX 01 00:43:48
  TRACK 43 AUDIO
    TITLE "0:"
    INDEX 01 00:44:56
  TRACK 44 AUDIO
    TITLE "14:cjc029_2845"
    INDEX 01 00:44:63
  TRACK 45 AUDIO
    TITLE "0:"
    INDEX 01 00:46:31
  TRACK 46 AUDIO
    TITLE "13:cjc029_2846"
    INDEX 01 00:47:11
  TRACK 47 AUDIO
    TITLE "0:"
    INDEX 01 00:48:24
  TRACK 48 AUDIO
    TITLE "14:cjc029_2847"
    INDEX 01 00:48:28
  TRACK 49 AUDIO
    TITLE "0:"
    INDEX 01 00:49:47
  TRACK 50 AUDIO
    TITLE "13:cjc029_2848"
    INDEX 01 00:50:29
  TRACK 51 AUDIO
    TITLE "0:"
    INDEX 01 00:51:34
  TRACK 52 AUDIO
    TITLE "14:cjc029_2849"
    INDEX 01 00:51:38
  TRACK 53 AUDIO
    TITLE "0:"
    INDEX 01 00:55:04
  TRACK 54 AUDIO
    TITLE "13:cjc029_2850"
    INDEX 01 00:55:59
  TRACK 55 AUDIO
    TITLE "0:"
    INDEX 01 00:57:15
  TRACK 56 AUDIO
    TITLE "14:cjc029_2851"
    INDEX 01 00:57:17
  TRACK 57 AUDIO
    TITLE "0:"
    INDEX 01 00:59:49
  TRACK 58 AUDIO
    TITLE "13:cjc029_2852"
    INDEX 01 01:00:29
  TRACK 59 AUDIO
    TITLE "0:"
    INDEX 01 01:01:29
  TRACK 60 AUDIO
    TITLE "14:cjc029_2853"
    INDEX 01 01:01:36
  TRACK 61 AUDIO
    TITLE "0:"
    INDEX 01 01:02:44
  TRACK 62 AUDIO
    TITLE "13:cjc029_2854"
    INDEX 01 01:03:26
  TRACK 63 AUDIO
    TITLE "0:"
    INDEX 01 01:04:43
  TRACK 64 AUDIO
    TITLE "14:cjc029_2855"
    INDEX 01 01:04:47
  TRACK 65 AUDIO
    TITLE "0:"
    INDEX 01 01:07:23
  TRACK 66 AUDIO
    TITLE "13:cjc029_2856"
    INDEX 01 01:08:05
  TRACK 67 AUDIO
    TITLE "0:"
    INDEX 01 01:09:36
  TRACK 68 AUDIO
    TITLE "14:cjc029_2857"
    INDEX 01 01:09:40
  TRACK 69 AUDIO
    TITLE "0:"
    INDEX 01 01:11:51
